#!OML:ASF E:\emotionWalksFemale\Project 1\Capture day 1\Session 1\Female1.ASF
:FULLY-SPECIFIED
:DEGREES
2193
root 10.4004 15.1517 19.5063 -3.90982 -15.9023 369.162
lowerback 3.56552 -3.87614 2.29992
upperback -0.843768 -4.91689 6.60974
thorax -2.47977 -2.45451 5.84542
lowerneck -3.34528 6.59255 7.82896
upperneck 13.1804 8.65873 -3.20287
head 4.99795 4.44128 -1.76874
rclavicle -3.22031e-014 -2.54444e-014
rhumerus -50.4737 3.63838 -49.4537
rradius 34.5256
rwrist 29.5763
rhand -6.60163 -54.7027
rfingers 7.12502
rthumb -160.746 1176.23
lclavicle -3.22031e-014 -2.54444e-014
lhumerus -29.0909 -28.2954 75.38
lradius 47.8413
lwrist 7.8773
lhand -4.61286 -35.7752
lfingers 7.12502
lthumb 21.1653 -6.91061
rfemur -26.226 19.3627 13.7712
rtibia 31.2663
rfoot -17.3422 -27.8836
rtoes -2.91185
lfemur 8.33659 7.98035 -37.0847
ltibia 31.7705
lfoot -5.86341 2.04829
ltoes -26.8757
2194
root 10.3867 15.1675 19.6067 -3.92041 -15.8968 369.094
lowerback 3.66943 -3.9607 2.40291
upperback -0.872364 -5.01335 6.80019
thorax -2.55194 -2.50302 6.00501
lowerneck -3.3257 6.62257 7.64943
upperneck 13.1815 8.72509 -3.26879
head 4.9929 4.46232 -1.75725
rclavicle -5.4467e-014 -1.59028e-014
rhumerus -50.0774 3.6322 -49.6451
rradius 34.258
rwrist 29.3738
rhand -7.07698 -54.924
rfingers 7.12502
rthumb -161.203 1175.96
lclavicle -5.4467e-014 -1.59028e-014
lhumerus -29.3685 -28.3389 75.7099
lradius 47.9573
lwrist 8.01948
lhand -4.63566 -35.9274
lfingers 7.12502
lthumb 21.1434 -7.0603
rfemur -25.838 18.7207 14.0491
rtibia 31.4261
rfoot -17.2291 -27.6854
rtoes -4.08398
lfemur 8.61885 8.01978 -36.9837
ltibia 31.7441
lfoot -4.85815 2.17382
ltoes -27.3125
2195
root 10.3775 15.18 19.7217 -4.01216 -16.1254 368.936
lowerback 3.63322 -3.9695 2.72423
upperback -0.786347 -5.01574 6.98834
thorax -2.45316 -2.51003 6.0166
lowerneck -3.33464 6.68355 7.52852
upperneck 13.182 8.83091 -3.36643
head 4.99877 4.50346 -1.76085
rclavicle -3.97569e-014 -5.08889e-014
rhumerus -49.7339 3.7436 -49.8444
rradius 34.0939
rwrist 29.3768
rhand -7.22818 -54.8479
rfingers 7.12502
rthumb -161.349 1176.03
lclavicle -3.97569e-014 -5.08889e-014
lhumerus -29.5217 -28.1991 76.0148
lradius 47.9492
lwrist 7.86481
lhand -4.45835 -36.1897
lfingers 7.12502
lthumb 21.3138 -7.34178
rfemur -25.2987 18.4496 14.3778
rtibia 31.5043
rfoot -16.8357 -27.5664
rtoes -5.16454
lfemur 8.84964 8.15315 -36.903
ltibia 31.9805
lfoot -4.10287 2.55843
ltoes -28.7371
2196
root 10.3653 15.1941 19.8041 -3.51631 -15.9989 368.79
lowerback 3.47315 -3.98253 2.80414
upperback -0.954631 -5.02553 7.19019
thorax -2.52618 -2.51417 6.18307
lowerneck -3.32132 6.6919 7.65158
upperneck 13.1474 8.85382 -3.52265
head 4.99961 4.51203 -1.82729
rclavicle -2.20651e-014 7.63333e-014
rhumerus -49.6739 3.79993 -50.1774
rradius 34.1386
rwrist 29.2073
rhand -7.28189 -54.6766
rfingers 7.12502
rthumb -161.4 1176.19
lclavicle -2.20651e-014 7.63333e-014
lhumerus -29.6177 -28.4718 76.2608
lradius 48.0508
lwrist 7.92772
lhand -4.26339 -36.2904
lfingers 7.12502
lthumb 21.501 -7.46376
rfemur -25.3879 18.4111 14.3965
rtibia 31.4919
rfoot -16.47 -27.9195
rtoes -5.22588
lfemur 8.3852 8.03634 -36.7721
ltibia 32.3537
lfoot -2.93378 2.45762
ltoes -28.851
2197
root 10.3592 15.2042 19.9123 -3.29299 -16.2316 368.427
lowerback 3.22021 -3.84118 3.49913
upperback -0.943823 -4.82353 7.27931
thorax -2.44017 -2.4231 5.85719
lowerneck -3.19441 6.47158 7.66545
upperneck 13.0515 8.58219 -3.67628
head 4.93956 4.37216 -1.90116
rclavicle -4.05521e-014 5.725e-014
rhumerus -49.8192 3.63937 -50.4969
rradius 34.1499
rwrist 29.0099
rhand -7.18572 -54.4861
rfingers 7.12502
rthumb -161.308 1176.39
lclavicle -4.05521e-014 5.725e-014
lhumerus -29.7921 -29.2079 76.5616
lradius 48.2638
lwrist 8.19933
lhand -4.41731 -36.1421
lfingers 7.12502
lthumb 21.3532 -7.29863
rfemur -25.1489 17.9913 14.8376
rtibia 31.4808
rfoot -15.7837 -27.193
rtoes -5.62061
lfemur 8.28699 8.07826 -36.557
ltibia 32.7484
lfoot -1.91097 2.59363
ltoes -28.1783
2198
root 10.351 15.217 20.0209 -3.25807 -16.481 368.075
lowerback 3.18566 -3.68587 4.08997
upperback -0.838445 -4.60025 7.41264
thorax -2.36404 -2.31972 5.64962
lowerneck -3.37973 6.31594 7.73014
upperneck 13.0455 8.38932 -3.94307
head 4.97076 4.2638 -2.0003
rclavicle 1.51076e-014 2.22639e-014
rhumerus -49.8253 3.32445 -50.665
rradius 34.1168
rwrist 29.0341
rhand -7.09973 -54.3515
rfingers 7.12502
rthumb -161.225 1176.53
lclavicle 1.51076e-014 2.22639e-014
lhumerus -29.8633 -29.7219 76.9188
lradius 48.4456
lwrist 8.40806
lhand -4.59806 -35.9726
lfingers 7.12502
lthumb 21.1796 -7.10959
rfemur -24.7135 17.5159 15.3629
rtibia 31.5379
rfoot -15.5584 -26.1652
rtoes -5.25543
lfemur 8.34283 8.23508 -36.2762
ltibia 33.1751
lfoot -1.09293 3.19036
ltoes -26.1617
2199
root 10.3415 15.228 20.1135 -3.10732 -16.4281 368.122
lowerback 3.19657 -3.67593 4.05621
upperback -0.890783 -4.58161 7.53318
thorax -2.4134 -2.3096 5.79961
lowerneck -3.45705 6.29816 8.1799
upperneck 13.0415 8.41479 -4.61894
head 5.03115 4.25945 -2.27504
rclavicle -1.49089e-014 -2.8625e-014
rhumerus -49.7632 3.29031 -50.9028
rradius 34.2069
rwrist 29.1211
rhand -7.12676 -54.3882
rfingers 7.12502
rthumb -161.251 1176.5
lclavicle -1.49089e-014 -2.8625e-014
lhumerus -30.0818 -29.97 77.2264
lradius 48.6359
lwrist 8.5449
lhand -4.89293 -35.9513
lfingers 7.12502
lthumb 20.8963 -7.05677
rfemur -24.5483 17.0671 15.3367
rtibia 31.6729
rfoot -15.7352 -25.6128
rtoes -4.23101
lfemur 8.19072 8.23008 -36.3697
ltibia 33.4869
lfoot 0.267977 4.13537
ltoes -21.922
2200
root 10.3331 15.2395 20.1973 -2.93104 -16.3521 368.159
lowerback 3.37527 -3.70513 3.95355
upperback -0.987141 -4.59901 7.6872
thorax -2.59245 -2.3157 6.04232
lowerneck -3.2878 6.29907 8.05305
upperneck 12.7664 8.43727 -4.65816
head 4.91497 4.2644 -2.27437
rclavicle 4.29375e-014 -2.22639e-014
rhumerus -49.5067 3.22186 -51.0182
rradius 34.0968
rwrist 29.4346
rhand -7.03737 -54.3547
rfingers 7.12502
rthumb -161.165 1176.54
lclavicle 4.29375e-014 -2.22639e-014
lhumerus -30.3227 -30.0689 77.5056
lradius 48.7476
lwrist 8.48143
lhand -5.34417 -36.1022
lfingers 7.12502
lthumb 20.4627 -7.16045
rfemur -24.5142 16.1689 15.4063
rtibia 31.8624
rfoot -15.032 -25.0208
rtoes -5.70396
lfemur 8.00287 8.22285 -36.4454
ltibia 33.7624
lfoot 1.74499 4.69396
ltoes -18.8313
2201
root 10.3229 15.2538 20.2999 -2.85023 -16.5706 367.961
lowerback 3.36716 -3.62862 4.2062
upperback -0.944954 -4.48817 7.84359
thorax -2.55949 -2.26419 6.05935
lowerneck -3.35383 6.27239 8.49508
upperneck 12.9035 8.45284 -5.31295
head 5.0153 4.2566 -2.5416
rclavicle 9.14409e-015 -3.18055e-015
rhumerus -49.313 3.02926 -51.0368
rradius 33.9815
rwrist 29.8293
rhand -6.97279 -54.0944
rfingers 7.12502
rthumb -161.103 1176.8
lclavicle 9.14409e-015 -3.18055e-015
lhumerus -30.4639 -30.2501 77.7826
lradius 48.8179
lwrist 8.47218
lhand -5.21017 -36.1031
lfingers 7.12502
lthumb 20.5915 -7.17526
rfemur -24.36 15.4844 15.8034
rtibia 32.1555
rfoot -14.0682 -24.5046
rtoes -8.42108
lfemur 8.01688 8.47105 -36.2646
ltibia 34.0235
lfoot 2.83125 4.86758
ltoes -16.634
2202
root 10.311 15.2692 20.3939 -2.51965 -16.4523 367.904
lowerback 3.23747 -3.61006 4.27783
upperback -1.11226 -4.45534 7.9681
thorax -2.65895 -2.24773 6.15014
lowerneck -3.23799 6.23443 8.06987
upperneck 12.8958 8.38805 -4.89755
head 4.95322 4.22959 -2.35462
rclavicle 9.14409e-015 -3.18055e-014
rhumerus -49.4089 3.31169 -51.3376
rradius 34.068
rwrist 29.5713
rhand -7.26124 -54.0327
rfingers 7.12502
rthumb -161.38 1176.84
lclavicle 9.14409e-015 -3.18055e-014
lhumerus -30.7185 -30.6746 78.1202
lradius 48.9694
lwrist 8.67043
lhand -4.95631 -35.9889
lfingers 7.12502
lthumb 20.8354 -7.0877
rfemur -24.4277 15.2947 15.7965
rtibia 32.4705
rfoot -14.0564 -24.4558
rtoes -8.50068
lfemur 7.7413 8.47836 -36.2292
ltibia 34.2827
lfoot 4.09208 4.81159
ltoes -14.4062
2203
root 10.2942 15.2678 20.475 -2.61543 -16.3391 367.968
lowerback 3.61484 -3.62652 4.11288
upperback -1.20415 -4.43958 8.08058
thorax -2.94744 -2.23506 6.39894
lowerneck -3.09128 6.18535 7.70882
upperneck 12.9043 8.32459 -4.62772
head 4.90015 4.19865 -2.22368
rclavicle 8.01102e-014 -6.36111e-014
rhumerus -49.3796 3.58983 -51.5938
rradius 34.0276
rwrist 29.3723
rhand -7.3502 -54.2088
rfingers 7.12502
rthumb -161.466 1176.65
lclavicle 8.01102e-014 -6.36111e-014
lhumerus -31.1322 -30.9362 78.5126
lradius 49.1078
lwrist 8.74197
lhand -5.17661 -36.1855
lfingers 7.12502
lthumb 20.6237 -7.26117
rfemur -24.0655 15.1996 15.8094
rtibia 32.7816
rfoot -14.5389 -24.2491
rtoes -7.43905
lfemur 7.87353 8.72583 -36.1641
ltibia 34.5739
lfoot 5.24773 4.71521
ltoes -14.6539
2204
root 10.2827 15.2688 20.5733 -2.55567 -16.5186 367.936
lowerback 3.49196 -3.57585 4.23049
upperback -1.15125 -4.38166 8.17676
thorax -2.82901 -2.20893 6.41978
lowerneck -3.02274 6.1276 7.87098
upperneck 12.8892 8.28558 -4.98335
head 4.90229 4.16909 -2.36404
rclavicle -1.23246e-014 2.22639e-014
rhumerus -49.1721 3.65568 -51.7528
rradius 34.0168
rwrist 29.4423
rhand -7.12985 -54.3588
rfingers 7.12502
rthumb -161.254 1176.52
lclavicle -1.23246e-014 2.22639e-014
lhumerus -31.3678 -30.9798 78.7574
lradius 49.1912
lwrist 8.74484
lhand -5.19461 -36.3459
lfingers 7.12502
lthumb 20.6064 -7.4197
rfemur -23.9214 14.7086 15.9446
rtibia 33.0817
rfoot -15.1337 -23.5186
rtoes -5.89887
lfemur 7.8477 9.0566 -36.1077
ltibia 34.8961
lfoot 6.11538 5.12137
ltoes -14.9521
2205
root 10.2797 15.273 20.6631 -2.46333 -16.4878 367.81
lowerback 3.48071 -3.58756 4.56703
upperback -1.05621 -4.38948 8.23687
thorax -2.74405 -2.21846 6.28971
lowerneck -3.02602 6.10568 8.05263
upperneck 12.7744 8.29694 -5.42339
head 4.89323 4.15959 -2.52898
rclavicle -1.58233e-013 9.22361e-014
rhumerus -48.915 3.89585 -52.1368
rradius 34.1222
rwrist 29.0494
rhand -7.15008 -54.7212
rfingers 7.12502
rthumb -161.274 1176.16
lclavicle -1.58233e-013 9.22361e-014
lhumerus -31.3324 -31.0351 78.7849
lradius 49.2582
lwrist 8.71121
lhand -5.07399 -36.1876
lfingers 7.12502
lthumb 20.7223 -7.27398
rfemur -23.796 14.0997 16.1183
rtibia 33.3956
rfoot -15.6518 -22.9403
rtoes -4.48342
lfemur 7.75753 9.13167 -36.0085
ltibia 35.2425
lfoot 7.04838 5.40035
ltoes -14.4053
2206
root 10.2737 15.2804 20.7477 -2.3862 -16.4112 367.635
lowerback 3.63174 -3.60538 4.85219
upperback -1.00129 -4.38755 8.30368
thorax -2.78883 -2.22144 6.21113
lowerneck -3.32086 6.04574 8.73221
upperneck 12.9093 8.25015 -6.20747
head 5.0411 4.12067 -2.87276
rclavicle 7.5737e-014 1.27222e-014
rhumerus -48.6637 3.90148 -52.3781
rradius 34.1682
rwrist 28.8383
rhand -7.02907 -55.0718
rfingers 7.12502
rthumb -161.157 1175.82
lclavicle 7.5737e-014 1.27222e-014
lhumerus -31.4127 -31.3296 78.852
lradius 49.3502
lwrist 8.84888
lhand -5.23829 -36.0367
lfingers 7.12502
lthumb 20.5644 -7.10591
rfemur -23.6002 13.6595 16.3472
rtibia 33.6802
rfoot -15.4921 -22.6521
rtoes -4.69566
lfemur 7.68879 9.17784 -35.8147
ltibia 35.5958
lfoot 7.90919 5.28798
ltoes -15.7073
2207
root 10.2606 15.2844 20.8353 -2.27799 -16.4299 367.513
lowerback 3.78656 -3.59998 4.98051
upperback -1.02756 -4.35356 8.40232
thorax -2.90834 -2.20591 6.25794
lowerneck -3.0695 6.03393 8.61441
upperneck 12.5495 8.23813 -6.12468
head 4.87864 4.11846 -2.83986
rclavicle 2.62396e-014 -1.49486e-013
rhumerus -48.4532 3.68955 -52.3553
rradius 34.1285
rwrist 29.1809
rhand -6.63396 -54.9422
rfingers 7.12502
rthumb -160.777 1175.99
lclavicle 2.62396e-014 -1.49486e-013
lhumerus -31.6951 -31.5231 79.0202
lradius 49.4839
lwrist 8.97618
lhand -5.14654 -36.2514
lfingers 7.12502
lthumb 20.6526 -7.33015
rfemur -23.4415 13.4444 16.5377
rtibia 33.9526
rfoot -15.3443 -22.5238
rtoes -4.53641
lfemur 7.58714 9.28215 -35.6319
ltibia 35.9922
lfoot 8.679 5.14166
ltoes -18.257
